<?xml version="1.0" standalone="no"?>
<!DOCTYPE svg PUBLIC "-//W3C//DTD SVG 20010904//EN"
 "http://www.w3.org/TR/2001/REC-SVG-20010904/DTD/svg10.dtd">
<svg version="1.0" xmlns="http://www.w3.org/2000/svg"
 width="700.000000pt" height="700.000000pt" viewBox="0 0 700.000000 700.000000"
 preserveAspectRatio="xMidYMid meet">
<metadata>
Created by potrace 1.14, written by Peter Selinger 2001-2017
</metadata>
<g transform="translate(0.000000,700.000000) scale(0.100000,-0.100000)"
fill="#000000" stroke="none">
<path d="M3138 6746 c-1 -2 -50 -6 -108 -10 -378 -25 -913 -224 -1310 -489
-70 -47 -229 -164 -240 -177 -3 -3 -30 -25 -60 -49 -94 -76 -341 -331 -430
-444 -346 -442 -568 -960 -626 -1462 -24 -207 -23 -735 1 -925 16 -120 113
-480 155 -575 5 -11 23 -56 40 -99 68 -174 172 -370 298 -558 190 -285 473
-578 762 -785 186 -134 445 -275 655 -358 66 -26 129 -51 140 -55 87 -36 376
-109 495 -126 19 -2 49 -6 65 -9 177 -26 684 -26 890 0 110 15 333 62 405 87
19 7 37 13 40 13 17 3 148 48 162 56 10 5 23 9 29 9 6 0 27 7 47 16 21 9 46
19 57 24 11 4 94 44 185 88 317 156 575 342 820 591 102 103 154 161 200 221
19 25 37 47 40 50 36 30 220 314 291 450 70 131 185 401 203 475 2 6 6 17 9
25 8 20 66 229 72 258 2 12 6 30 9 40 3 9 7 34 10 54 3 21 10 57 16 81 5 24
12 70 16 102 3 32 8 67 10 78 23 119 22 540 -2 697 -24 160 -37 237 -55 310
-11 47 -22 95 -25 106 -23 118 -145 435 -235 610 -77 150 -197 349 -256 424
-171 218 -317 377 -443 485 -94 81 -103 88 -185 151 -232 178 -528 342 -804
446 -105 39 -314 103 -373 113 -17 3 -34 8 -37 10 -6 3 -57 12 -111 20 -84 12
-113 15 -165 21 -62 6 -650 15 -657 10z m-758 -455 c0 -5 -21 -27 -47 -48 -71
-56 -97 -80 -321 -301 -114 -112 -227 -217 -252 -234 -45 -30 -45 -30 -154
-25 -60 3 -113 10 -118 15 -26 26 94 147 258 262 12 8 50 35 85 60 152 107
331 207 446 250 84 31 103 35 103 21z m2045 -86 c155 -3 177 -10 260 -90 53
-50 105 -87 120 -85 2 1 23 7 46 15 53 19 82 19 122 -1 28 -15 164 -110 177
-124 3 -3 46 -39 95 -79 190 -154 326 -302 473 -513 121 -174 271 -454 341
-638 18 -47 37 -94 42 -105 21 -48 91 -299 108 -390 19 -97 23 -123 40 -285
11 -107 8 -337 -5 -350 -13 -13 -43 40 -99 175 -43 102 -64 136 -111 182 -87
84 -289 213 -335 213 -27 0 -89 33 -183 97 -97 66 -114 60 -63 -24 20 -32 46
-69 58 -82 21 -22 80 -53 96 -50 26 4 46 -5 80 -38 34 -33 103 -130 103 -145
0 -3 -39 -37 -87 -75 -232 -184 -406 -260 -472 -205 -11 9 -40 55 -64 102 -43
85 -112 198 -273 445 -46 72 -99 158 -116 193 -31 61 -31 64 -15 91 28 48 27
211 -2 211 -4 0 -25 -14 -46 -30 -42 -34 -60 -33 -111 6 -39 29 -97 107 -124
165 -37 83 -22 128 58 168 60 29 118 39 272 46 188 7 216 42 93 114 -115 68
-105 56 -86 97 15 30 15 37 3 44 -28 17 -128 -11 -225 -65 -81 -45 -103 -71
-110 -129 -3 -27 -14 -59 -23 -72 -26 -36 -95 -64 -175 -70 -79 -7 -107 -17
-107 -39 0 -8 -6 -15 -13 -15 -19 0 -47 34 -91 107 -45 76 -117 142 -198 182
-58 30 -108 40 -108 23 0 -14 33 -57 101 -128 99 -106 102 -138 9 -130 -58 5
-80 14 -80 33 0 38 -172 170 -235 180 -28 5 -51 -2 -113 -32 -116 -57 -227
-148 -322 -264 -59 -71 -85 -82 -181 -76 -107 6 -185 29 -201 58 -18 33 -14
217 7 260 20 43 65 65 165 82 49 8 118 45 142 75 17 21 19 34 14 82 -5 51 -3
60 20 87 14 16 51 42 82 57 80 39 232 135 317 202 35 27 114 72 127 72 8 0 46
-22 84 -48 83 -59 108 -72 142 -78 40 -8 104 22 130 60 37 54 39 95 7 161
l-27 57 -31 -38 c-132 -163 -192 -165 -291 -9 l-31 50 -74 0 c-65 0 -75 2 -81
20 -24 66 72 151 257 226 177 73 205 78 408 72 99 -3 239 -6 310 -8z m-1435
-365 c31 -22 150 -161 169 -197 18 -36 13 -51 -27 -78 -46 -31 -88 -44 -164
-52 -52 -5 -59 -3 -81 21 -27 29 -49 33 -67 11 -31 -37 -84 4 -73 57 7 38 27
51 73 50 44 -2 45 0 54 95 6 71 30 105 79 112 5 0 22 -8 37 -19z m-1840 -542
c7 -35 14 -74 17 -87 2 -13 10 -52 17 -86 21 -103 15 -115 -109 -213 -83 -65
-145 -123 -145 -134 0 -5 11 -13 25 -18 14 -5 25 -15 25 -21 0 -6 -40 -72 -89
-147 -177 -273 -229 -403 -257 -646 -8 -77 -26 -138 -42 -144 -15 -5 -16 49
-2 133 5 33 13 80 16 105 45 355 202 801 393 1115 20 33 41 67 46 76 44 74 81
128 86 129 4 0 12 -28 19 -62z m2420 -543 c76 -12 77 -13 89 -62 36 -139 58
-173 130 -198 69 -23 215 -30 297 -14 89 17 155 13 271 -17 331 -86 417 -165
553 -508 84 -211 209 -423 317 -535 l52 -54 75 6 c75 7 76 7 82 -19 6 -25 -5
-55 -49 -130 -40 -67 -156 -219 -214 -279 -37 -39 -74 -82 -82 -95 -61 -104
-81 -184 -86 -340 -7 -214 1 -194 -164 -396 -74 -91 -111 -163 -111 -217 0
-56 -23 -92 -125 -198 -51 -52 -95 -105 -99 -116 -12 -36 -223 -134 -355 -164
-51 -11 -82 -16 -153 -24 -54 -6 -54 -7 -63 105 -12 149 -93 379 -170 485 -43
59 -52 110 -32 174 31 98 40 160 41 271 0 158 -25 243 -95 313 -61 62 -74 107
-94 328 l-7 75 -62 -8 c-122 -18 -135 -17 -164 11 -15 15 -36 40 -48 56 l-20
29 -90 -39 c-117 -50 -268 -96 -324 -97 -26 -1 -60 6 -80 17 -112 57 -304 238
-385 364 -75 116 -87 152 -87 261 1 344 31 416 232 570 92 71 112 92 139 150
28 60 112 163 155 189 19 12 56 24 83 27 110 11 134 17 283 69 69 24 84 25
200 20 69 -2 141 -7 160 -10z m-2748 -1802 c21 -13 40 -23 42 -23 3 0 38 -22
79 -49 126 -84 219 -188 290 -326 47 -91 82 -118 288 -222 70 -35 146 -81 170
-102 43 -38 44 -40 44 -102 0 -40 -11 -104 -29 -169 -22 -79 -29 -125 -28
-185 1 -112 -1 -120 -50 -144 -101 -48 -141 -36 -244 72 -308 320 -524 684
-675 1137 -47 139 -56 180 -43 193 6 5 83 -34 156 -80z m4574 -528 c16 -63
-27 -251 -82 -364 -27 -54 -58 -95 -115 -153 -43 -43 -85 -78 -93 -78 -21 0
-38 70 -31 123 20 140 80 285 135 326 54 40 130 119 130 135 0 14 25 35 42 36
4 0 10 -11 14 -25z"/>
</g>
</svg>
